<svg version="1" xmlns="http://www.w3.org/2000/svg" width="1365.333" height="1365.333" viewBox="0 0 1024.000000 1024.000000"><path d="M447.3 303.2c-.5.7-1.9 3.8-3.1 6.8-14 36.9-9.4 83.2 12.6 127.7 7.3 14.9 9.8 17.5 12.5 13.1.8-1.2-.7-5.1-6.1-15.9-21.6-43.2-26.1-88.3-12.4-122.8 1.8-4.7 2.2-6.8 1.5-8-1.3-2.1-3.7-2.5-5-.9z"/><path d="M549 314.7c0 7.6.7 15.1 1.9 20.8 1 4.9 1.7 9.2 1.5 9.4-.2.2-19.8 1.3-43.5 2.5-50.2 2.5-45.9 1.1-45.9 14.4 0 11.1.6 12.2 7.5 12.2h5.5v31.5l-3.5-5.3c-3.3-4.8-3.8-5.2-7.6-5.2-2.3 0-4.2.5-4.5 1.3-.6 1.7 15.4 34.7 17.3 35.4 2.2.8 94.4-3.7 97.1-4.7 2.2-.9 2.2-1.3 2.2-17.2l.1-16.3 2.2 3c5 6.7 6.5 8.1 7.8 6.8.9-.9-.1-2.8-4.5-8.4l-5.6-7.2V369h3.1c6.4 0 6.9-1 6.9-12.3 0-5.6-.4-10.8-.9-11.6-.7-1.1-3.8-1.3-15.2-1l-14.3.4-1.8-7c-1.1-4.2-2.1-12.5-2.5-20.8-.5-10.5-.9-13.7-1.9-13.7-1.1 0-1.4 2.5-1.4 11.7zm31 41.8c0 4.2-.3 5.5-1.5 5.5-1.1 0-1.5-1.1-1.5-3.9 0-4.7-1.2-5.8-7-6.4-3.3-.2-2.5-.4 2.8-.5l7.2-.2v5.5zm-31.2 1.2c-.3 5.5-.4 5.8-3 6.1-2.8.3-2.8.2-2.8-5.2 0-5.5.6-6.4 4.3-6.5 1.6-.1 1.8.6 1.5 5.6zm14-4.6c-1.3.7-1.8 2.3-1.8 5.4v4.5h-8v-11h5.8c4.3.1 5.3.3 4 1.1zm-23.8 5.3v5.3l-8.2.6c-4.6.4-10.2.7-12.5.7H514v-10.9l5.8-.4c3.1-.2 8.7-.4 12.5-.5l6.7-.2v5.4zm-28 1.1c0 3.7-.4 5.5-1.2 5.5-.7 0-2.3.3-3.5.6-2.2.6-2.3.3-2.3-4.8 0-6.3.3-6.8 4.2-6.8 2.7 0 2.8.1 2.8 5.5zm-10 1v5.5h-4.5c-4.4 0-4.5-.1-4.5-3.3 0-4.3-1.1-5.8-5.1-6.7-2.6-.6-1.3-.8 5.4-.9l8.7-.1v5.5zm-21-3.6c-3.4.6-3.5.8-3.8 5.3-.3 4.6-.5 4.8-3.3 4.8-2.9 0-2.9-.1-2.9-5.5V356l6.8.1c5.1.1 5.9.3 3.2.8zm90 33.1c0 20-.4 31-1 31s-1-11-1-31 .4-31 1-31 1 11 1 31zm-85 4c0 26.9-.2 31-1.5 31s-1.5-4.1-1.5-31 .2-31 1.5-31 1.5 4.1 1.5 31zm76-7.3l-.1 16.8-5.5-6.3c-5.6-6.2-8.2-7.4-12.8-5.6-2.4.9-2 2.2 4.3 12.4 3.3 5.2 5.7 9.7 5.5 10-.5.4-43.8 2.8-54.6 2.9l-5.8.1v-44l4.3-.1c2.3 0 14.6-.6 27.2-1.3 12.7-.7 26.3-1.4 30.3-1.5l7.2-.1v16.7zm-6.1 15.2c6.4 7.3 8.1 12.1 4.2 12.1-1.3 0-3.6-2.8-7.5-9-3.1-5-5.6-9.2-5.6-9.5 0-.3.6-.5 1.4-.5.7 0 4.1 3.1 7.5 6.9zm-83.1 3.8c3.3 5.2 4.2 7.6 4.2 11 0 2.4-.2 4.3-.5 4.3s-3-5-6-11c-4.6-9.1-5.2-11-3.8-11 1.1 0 3.4 2.6 6.1 6.7zm88.8 15c-.3.4-11.7 1.2-25.4 1.9-13.6.7-28.9 1.5-33.9 1.8-8.8.5-9.3.4-9.3-1.4 0-1.1.1-2 .3-2.1.1 0 15.5-.8 34.2-1.7 28.1-1.4 34.1-1.5 34.3-.4.2.8.1 1.6-.2 1.9zM954.5 515.1c-13.5 2.5-24.5 13.1-28.1 27-2.8 11-.2 20.1 9.2 31.4 7.1 8.6 10.3 14.5 10.4 18.6.1 8.4-7.6 18.5-16.6 21.7-5.6 2-7.1 4.7-6 10.5.8 4.3 2.5 5.1 9 3.7 15.4-3.2 27.6-18.1 27.6-33.9 0-9.2-2.2-14.6-10.5-25.5-4.1-5.5-8-11.5-8.6-13.3-1.4-4.3-.4-9.6 2.7-14.9 3.1-5.5 7.2-8.9 13.4-10.9l5-1.7v-6.3c0-7.1-.6-7.6-7.5-6.4zM862 516.6c-18.8 4.9-34.2 19.7-40.1 38.4-2.8 9-2.8 23.2 0 32.6 5.8 19.3 21.2 34 41.1 39 8 2 23 1.5 30.9-1.2 6.2-2.1 15-7.2 16.4-9.5 1.2-2-.2-6-3.6-10.2l-2.2-2.8-9 4.3-9 4.3H875c-10.5 0-12-.2-17-2.7-15.9-7.8-23.6-21.1-22.8-39.3.5-11.6 3.5-18.3 11.5-26.3 14.6-14.4 35.9-17.1 52.6-6.5 3.1 1.9 4.4 2.3 6.1 1.5 2.8-1.3 6.7-9.1 5.6-11.1-1.3-2.6-14.1-8.9-21.1-10.6-8-1.8-20.7-1.8-27.9.1zM69.2 519.2c-1.6 1.6-1.6 11.3.1 12.6.8.7 9.5 1.2 22.9 1.4l21.6.3 3.9 3.1c10.7 8.6 11.4 22.8 1.6 31.5-1.9 1.7-4.6 3.5-6 4-1.3.5-12.7.9-25.3.9-12.6 0-23.5.3-24.4.6-1.4.5-1.6 3.9-1.6 27.5V628h5.8c3.2 0 6.3-.5 7-1.2.8-.8 1.2-6.7 1.2-19.9v-18.8l20.3-.3c19.1-.3 20.5-.4 25.2-2.7 11.6-5.8 18.6-16.9 19.3-30.7.9-17-8.3-30.9-23.4-35.2-5.8-1.7-46.6-1.6-48.2 0zM160.7 518.6c-.4.4-.7 3.6-.7 7 0 5.8.2 6.4 2.3 6.9 1.2.3 11.5.6 22.8.7l20.6.3 4.1 2.9c4.8 3.3 9.2 11.2 9.2 16.6 0 5.4-4.4 13.3-9.2 16.6l-4.1 2.9-25.4.5c-21.1.4-25.5.8-26.3 2-1.2 1.8-1.3 50-.1 51.8.5.9 2.7 1.2 7.2 1l6.4-.3.3-19.8.2-19.7H191.7l11.9 19.7 11.9 19.8 7.9.3c4.4.2 8.3-.1 8.8-.6s-4.2-9.3-10.7-20.1c-6.3-10.6-11.5-19.6-11.5-19.9 0-.4 1.8-1.5 3.9-2.5 6.6-3 12.8-9.3 16.3-16.5 2.9-5.9 3.3-7.6 3.3-15.2 0-7.1-.4-9.4-2.6-14.1-3.7-7.9-9-13.3-16.7-17.1l-6.6-3.3-23.1-.3c-12.7-.2-23.4 0-23.8.4zM291.7 520.2c-.8 1.3-11.5 25.2-23.8 53.2-17.2 39.5-22 51.2-21.2 52.5.9 1.4 6 1.6 49.1 1.9 46.4.2 48.1.2 48.7-1.7.4-1.2-7.4-20.4-22.3-54.7l-22.8-52.9-3.1-.3c-2.4-.2-3.5.2-4.6 2zm18.2 59.3c7.7 18.1 13.9 33 13.7 33.2-.2.2-12.9.2-28.3.1l-28-.3 14.1-33.2c7.8-18.2 14.2-33 14.3-32.9.1.1 6.5 15 14.2 33.1zM372.2 519.2c-1.7 1.7-1.7 105.9 0 107.6.7.7 3.5 1.2 6.3 1.2s5.6-.5 6.3-1.2c.9-.9 1.2-12.8 1.2-47.5V533h15.8c11 0 16.2-.4 17-1.2.7-.7 1.2-3.5 1.2-6.3s-.5-5.6-1.2-6.3c-1.7-1.7-44.9-1.7-46.6 0zM433.2 519.2c-1.4 1.4-1.7 105.4-.3 107.6.5.9 2.7 1.2 7.2 1l6.4-.3.3-16.3.2-16.2h61v14.8c0 18.1.2 18.4 8.5 18l6-.3v-109l-6-.3c-8.3-.4-8.5 0-8.5 17V549h-61v-14.3c0-9.8-.4-14.7-1.2-15.5-1.6-1.6-11-1.6-12.6 0zM508 572v8h-61v-16h61v8zM536.2 519.2c-.9.9-1.2 14.1-1.2 53.4 0 28.7.3 52.9.6 53.8.5 1.4 4.5 1.6 34.4 1.6s33.9-.2 34.4-1.6c1-2.7.6-11-.6-12.2-.9-.9-8.4-1.2-27.5-1.2H550v-46.3c0-34.7-.3-46.6-1.2-47.5-1.6-1.6-11-1.6-12.6 0zM617.5 519.2c-.3.7-.4 25.4-.3 54.8l.3 53.5 37.9.3c29.7.2 38.1-.1 38.8-1 .4-.7.8-3.6.8-6.5 0-4.2-.4-5.4-1.9-6.3-1.2-.6-13.1-1-31.5-1H632v-18h23.9c27 0 27.1 0 27.1-7.1 0-8.2 1-7.9-26.5-7.9H632v-16h23.9c27.2 0 27.1 0 27.1-7.6 0-3.1-.6-5-2-6.4-1.9-1.9-3.3-2-25.5-2H632v-15h30.3c16.6 0 30.8-.4 31.5-.9.9-.5 1.2-2.7 1-7.2l-.3-6.4-38.3-.3c-30.1-.2-38.4 0-38.7 1zM722 519.9c-1.6 3.1-1.4 104.2.3 106.5 1 1.4 2.5 1.7 7.2 1.4l6-.3.3-47.3.2-47.2h15.9c18.1 0 19.1-.4 19.1-7.1 0-8.2.8-7.9-25-7.9-21.6 0-23 .1-24 1.9zM783 519.9c-.6 1.3-1 19.8-1 53.1s.4 51.8 1 53.1c.9 1.5 2.2 1.9 7 1.9s6.1-.4 7-1.9c.6-1.3 1-19.8 1-53.1s-.4-51.8-1-53.1c-.9-1.5-2.2-1.9-7-1.9s-6.1.4-7 1.9zM395.9 655.4c-15.6 5.6-18.9 25.1-5.8 34.5 3.8 2.8 4.9 3.1 11.6 3.1 7.9 0 11.3-1.2 15-5.2l2.3-2.4-3.3-3.3c-3-2.9-3.5-3-4.7-1.6-4.1 5-11.8 5.5-15.9 1.1-9.4-10 3.3-23.6 14.3-15.3l3.3 2.6 2.7-2.8c1.4-1.5 2.6-3.2 2.6-3.9 0-1.7-6.1-5.9-10.5-7.1-5.1-1.4-7.1-1.3-11.6.3z"/><path d="M427.4 655.1c-5.1 1.5-7.9 5.3-7.9 10.9 0 6 1.9 8.3 10.3 12.1 6.3 2.8 7.9 5.2 4.3 6.4-1 .3-3.8-.2-6.1-1.1l-4.1-1.7-3 2.9c-1.6 1.5-2.9 3.1-2.9 3.6s1.5 1.7 3.3 2.8c3.6 2.3 14.9 2.8 19 .9 2.9-1.3 5.7-5.8 5.7-9.4 0-5.1-2.7-8.4-9.8-11.8-3.7-1.8-6.8-4-7-4.9-.5-2.4 3.3-3.2 7-1.3 3.1 1.5 3.3 1.5 6.2-1.4 2.9-3 2.9-3.1 1.1-5.1-3.1-3.4-10-4.7-16.1-2.9zM676.8 655c-16.1 4.9-20.1 25.3-6.7 34.9 3.8 2.8 4.9 3.1 11.6 3.1 7.9 0 11.3-1.2 15.1-5.3 2-2.1 2.3-3.3 2-8.8l-.3-6.4h-16v4c0 3.8.2 4 3.3 4.3 4 .4 4.1 1.7.2 3.1-8.8 3-17-5.2-13.5-13.6 2.7-6.3 11-8.6 16.6-4.4 3.5 2.6 4.1 2.6 6.7-.2 2.9-3.1 2.8-4.2-1-7.1-5.3-3.9-12.3-5.3-18-3.6zM185 673.1c-4.7 9.9-8.6 18.5-8.8 19-.2.5 1.9.9 4.7.9 4.9 0 5.2-.2 6.8-3.5l1.7-3.5H205l1.7 3.5c1.6 3.3 2 3.5 6.5 3.5 2.6 0 4.8-.4 4.8-.9 0-.4-3.8-8.9-8.5-18.7l-8.5-17.9-3.7-.3-3.8-.3-8.5 18.2zm16 4.1c0 .5-1.8.8-4 .8h-4l2.1-4.2 2.1-4.2 1.9 3.5c1 1.8 1.8 3.7 1.9 4.1zM217.2 659.2l.3 4.3 4.8.3 4.7.3V693h9v-29h10v-9h-29.1l.3 4.2zM248.7 655.7c-.4.3-.7 8.9-.7 19V693h10v-15h11v15h10v-38.1l-4.7.3-4.8.3-.3 6.7-.3 6.8H258v-14h-4.3c-2.4 0-4.7.3-5 .7zM283 673.9V693h27v-9h-16.9l-.3-14.3-.3-14.2-4.7-.3-4.8-.3v19zM311.7 655.7c-.4.3-.7 8.9-.7 19v18.4l13.3-.3 13.2-.3v-7l-8.2-.3-8.3-.3V677h16v-8h-16v-5.9l8.6-.3c4.7-.2 8.8 0 9.1.4.2.5 2.4.8 4.9.8h4.4v29h10v-28.9l4.8-.3 4.7-.3v-8l-27.6-.2c-15.2-.2-27.9 0-28.2.4zM369.4 656.3c-.2.7-.3 9.1-.2 18.7l.3 17.5 4.8.3 4.7.3V655h-4.5c-2.8 0-4.8.5-5.1 1.3zM460.4 656.4c-.3.8-.4 2.7-.2 4.3.3 2.6.7 2.8 5.1 3.1l4.7.3V693h10v-28.9l4.8-.3 4.7-.3.3-4.3.3-4.2h-14.6c-11.6 0-14.7.3-15.1 1.4zM492 674v19h9v-7c0-6.1.2-7 1.8-7 2.7 0 5 3 6.7 8.8l1.6 5.2h18.5l1.7-3.5 1.7-3.5h15.6l1.7 3.5c1.6 3.3 1.9 3.5 6.8 3.5 2.8 0 4.9-.4 4.7-.9-.1-.5-4.1-9-8.8-19l-8.5-18.1-3.8.2-3.8.3-8.2 17.4c-7.1 15.2-8.2 17-9 15-.6-1.3-1.9-4.5-3.1-7l-2.1-4.5 2.2-3.4c2.7-3.8 2.9-7.9.8-12-2.4-4.6-6.2-6-16.5-6h-9v19zm16.8-7.6c.4 3.3-1 4.6-5 4.6-2.6 0-2.8-.3-2.8-4.1v-4l3.8.3c3.3.3 3.7.6 4 3.2zM543 674l2 4h-4c-2.2 0-4-.2-4-.5 0-.7 3.3-7.5 3.7-7.5.1 0 1.2 1.8 2.3 4zM563 674v19h9v-38h-9v19zM576.4 656.3c-.2.7-.3 9.1-.2 18.7l.3 17.5 4.8.3 4.7.3v-21.5l6.8 10.7 6.7 10.7h9.5v-38.1l-4.7.3-4.8.3-.5 9.3-.5 9.3-6-9.6-6-9.5h-4.8c-3 0-4.9.5-5.3 1.3zM613 674v19.1l4.8-.3 4.7-.3v-37l-4.7-.3-4.8-.3V674z"/><path d="M627 674v19h9v-21.5l7 10.7 7 10.8h9v-38h-9v20.5l-6.8-10.2-6.7-10.3H627v19zM716 674v19h9v-10.7l4.6-.7c8.7-1.2 13.4-5.9 13.4-13.6 0-5.1-3-9.7-7.6-11.6-1.9-.8-6.8-1.4-11.4-1.4h-8v19zm16.5-9c2.3 2.6 1.3 6.8-2.1 8-4.8 1.9-5.4 1.4-5.4-4.5 0-5.4.1-5.5 2.8-5.5 1.6 0 3.7.9 4.7 2zM745.7 655.7c-.4.3-.7 8.9-.7 19V693h35.8l1.2-3.5 1.2-3.5H799l1.7 3.5c1.6 3.3 2 3.5 6.5 3.5 3.2 0 4.8-.4 4.7-1.3 0-.6-3.8-9.1-8.3-18.7l-8.3-17.5-3.7-.3-3.7-.3-7.8 16.3c-4.4 9-8 15.5-8 14.5-.1-1.5-1.2-1.7-8.6-1.7H755v-29h-4.3c-2.4 0-4.7.3-5 .7zm49.3 21.5c0 .5-1.6.8-3.5.8-4 0-4 .1-1.9-4.8l1.5-3.7 1.9 3.5c1.1 1.9 1.9 3.8 2 4.2zM813.7 655.7c-.4.3-.7 8.9-.7 19V693h9.9l.3-10.3.3-10.2 6.5 10.2 6.5 10.2 4.8.1h4.7v-38.1l-4.7.3-4.8.3-.5 9.3-.5 9.3-6-9.5-6-9.6h-4.6c-2.5 0-4.9.3-5.2.7z"/></svg>